<?xml version="1.0" encoding="UTF-8"?>
<svg id="Layer_2" data-name="Layer 2" xmlns="http://www.w3.org/2000/svg"  width="100" height="73" viewBox="0 0 493.7 181.2">
  <defs>
    <style>
      .cls-1 {
        fill: #2fb44a;
      }

      .cls-2 {
        fill: #58c7d8;
      }

      .cls-3 {
        fill: #055b7d;
      }

      .cls-4 {
        fill: #fed600;
      }
    </style>
  </defs>
  <g>
    <path class="cls-3" d="M141.69,.01V50.76h-1.93c-26.61,0-48.19-21.57-48.19-48.19,0-.89,0-1.73,.05-2.57h50.07Z"/>
    <path class="cls-2" d="M70.6,70.85C70.6,31.8,39,.15,0,0V141.69c0-39.05,31.6-70.7,70.6-70.85h0Z"/>
    <path class="cls-4" d="M70.85,70.85h-.2C70.65,109.9,39.05,141.55,.05,141.7H141.74c0-39.1-31.7-70.85-70.85-70.85h-.04Z"/>
    <path class="cls-1" d="M70.6,70.85C31.6,70.95,0,102.64,0,141.7c39-.1,70.6-31.79,70.6-70.85Z"/>
  </g>
  <g>
    <path class="cls-3" d="M200.69,.01V50.32h32.63v8.79h-42.56V0h9.93Z"/>
    <path class="cls-3" d="M275.73,17.48h8.84V59.1h-8.69l-.44-6.76c-2.91,5.33-9.63,7.85-15.06,7.85-12.74,.1-22.36-7.75-22.36-21.97s10.02-21.72,22.56-21.72c6.17,0,12.15,2.76,14.86,7.5l.25-6.57,.05,.05h0Zm-28.58,20.79c0,8.59,6.37,13.87,14.17,13.87,18.86,0,18.86-27.6,0-27.6-7.8,0-14.17,5.23-14.17,13.77v-.05h0Z"/>
    <path class="cls-3" d="M333.84,53.72c-4.89,4.54-10.27,6.52-16.54,6.52-12.54,0-23.01-7.5-23.01-21.87s10.37-21.87,23.01-21.87c6.02,0,11.06,1.78,15.75,6.17l-5.83,5.83c-2.76-2.52-6.37-3.7-9.82-3.7-7.85,0-13.97,5.33-13.97,13.58,0,8.79,6.37,13.43,13.87,13.43,3.7,0,7.5-1.09,10.37-3.9l6.17,5.83v-.02Z"/>
    <path class="cls-3" d="M350.38,17.48v22.32c0,7.11,4.25,12,11.85,12,7.16,0,12.15-5.68,12.15-12.59V17.49h9.13V59.21h-8.24l-.54-6.17c-4.25,4.64-8.94,6.76-15.06,6.76-10.71,0-18.42-7.36-18.42-19.95V17.49h9.13Z"/>
    <path class="cls-3" d="M428.93,59.1v-22.32c0-7.16-4.25-12-11.75-12s-12.19,5.68-12.19,12.49v21.77h-9.13V17.32h8.29l.54,6.07c4.15-4.49,9.03-6.66,14.66-6.66,10.61,0,18.76,7.16,18.76,19.95v22.36h-9.18v.05h0Z"/>
    <path class="cls-3" d="M484.86,17.48h8.84V59.1h-8.69l-.44-6.76c-2.91,5.33-9.63,7.85-15.06,7.85-12.74,.1-22.36-7.75-22.36-21.97s10.02-21.72,22.56-21.72c6.17,0,12.15,2.76,14.86,7.5l.25-6.57,.05,.05h0Zm-28.58,20.79c0,8.59,6.37,13.87,14.17,13.87,18.86,0,18.86-27.6,0-27.6-7.8,0-14.17,5.23-14.17,13.77v-.05h0Z"/>
  </g>
  <g>
    <path class="cls-3" d="M190.77,138.19v-59.05h43.79v9.18h-33.87v17.97h32.19v8.79h-32.19v23.06h-9.92v.05Z"/>
    <path class="cls-3" d="M251.64,96.58v22.32c0,7.11,4.25,12,11.85,12,7.16,0,12.15-5.68,12.15-12.59v-21.72h9.13v41.72h-8.24l-.54-6.17c-4.25,4.64-8.94,6.76-15.06,6.76-10.71,0-18.42-7.36-18.42-19.95v-22.36h9.13Z"/>
    <path class="cls-3" d="M330.19,138.19v-22.32c0-7.16-4.25-12-11.75-12s-12.19,5.68-12.19,12.49v21.77h-9.13v-41.72h8.29l.54,6.07c4.15-4.49,9.03-6.66,14.66-6.66,10.61,0,18.76,7.16,18.76,19.95v22.36h-9.18v.05h0Z"/>
    <path class="cls-3" d="M394.96,79.2v59.05h-8.59l-.54-6.57c-3.46,5.33-9.28,7.45-15.11,7.45-12.64,0-22.32-7.95-22.32-21.72s9.48-21.72,22.12-21.72c5.33,0,12.49,2.52,15.3,7.45v-23.9h9.13v-.05h.01Zm-37.42,38.17c0,8.34,6.12,13.58,13.82,13.58s13.87-5.38,13.87-13.58-6.27-13.53-13.87-13.53-13.82,4.99-13.82,13.53Z"/>
  </g>
  <g>
    <path class="cls-3" d="M214.32,168.66c0,6.57-4.2,12.54-13.03,12.54s-13.03-6.12-13.03-12.54c0-7.41,5.43-12.74,13.08-12.74,8.69,0,12.93,6.12,12.93,12.69l.05,.05h0Zm-12.99,8.98c6.32,0,8.99-4.25,8.99-8.94s-2.67-9.13-8.89-9.23c-5.88,0-9.03,3.9-9.03,9.23,.05,4.3,2.67,8.94,8.99,8.94h-.06Z"/>
    <path class="cls-3" d="M221.77,163.57v9.13c0,2.91,1.73,4.94,4.89,4.94,2.96,0,4.99-2.32,4.99-5.18v-8.94h3.75v17.13h-3.36l-.2-2.52c-1.73,1.93-3.65,2.76-6.17,2.76-4.39,0-7.55-3.01-7.55-8.2v-9.18h3.75l-.1,.05h0Z"/>
    <path class="cls-3" d="M243.94,163.57l.25,2.27c1.28-2.17,3.36-2.62,5.28-2.62,1.73,0,3.41,.59,4.44,1.48l-1.73,3.11c-.89-.69-1.78-1.04-3.16-1.04-2.57,0-4.84,1.53-4.84,4.69v9.28h-3.75v-17.08h3.51v-.1h0Z"/>
    <path class="cls-3" d="M281.06,163.52l-7.6,17.18h-4.1l-7.65-17.18h4.15l2.42,5.53,3.16,7.95,2.81-7.26,2.67-6.22h4.14Z"/>
    <path class="cls-3" d="M300.96,172.16c0,5.09-3.65,8.89-9.28,8.89s-9.23-3.8-9.23-8.89,3.65-8.94,9.23-8.94,9.28,3.9,9.28,8.94Zm-14.76,0c0,3.06,2.07,5.53,5.48,5.53s5.53-2.52,5.53-5.53-2.27-5.63-5.53-5.63-5.48,2.62-5.48,5.63Z"/>
    <path class="cls-3" d="M309.16,158.53c0,2.96-4.64,2.96-4.64,0s4.64-2.91,4.64,0Zm-4.25,4.99v17.18h3.75v-17.18h-3.75Z"/>
    <path class="cls-3" d="M328.9,178.43c-1.97,1.88-4.2,2.67-6.81,2.67-5.18,0-9.43-3.11-9.43-8.99s4.25-8.99,9.43-8.99c2.47,0,4.54,.74,6.47,2.52l-2.42,2.37c-1.14-1.04-2.62-1.53-4.05-1.53-3.26,0-5.73,2.17-5.73,5.58,0,3.6,2.62,5.53,5.73,5.53,1.53,0,3.11-.44,4.25-1.58l2.57,2.37v.05h-.01Z"/>
    <path class="cls-3" d="M334.63,173.44c.35,2.62,2.57,4.3,5.88,4.3,1.83,0,4.1-.64,5.18-1.83l2.42,2.27c-1.88,1.93-4.94,2.91-7.7,2.91-5.88,0-9.68-3.55-9.68-9.03s3.8-8.94,9.43-8.94,9.73,3.36,9.03,10.32h-14.56Zm10.91-3.01c-.2-2.72-2.27-4.15-5.28-4.15-2.72,0-4.99,1.43-5.58,4.15h10.86Z"/>
    <path class="cls-3" d="M366.23,158.53c0,2.96-4.64,2.96-4.64,0s4.64-2.91,4.64,0Zm-4.2,4.99v17.18h3.75v-17.18h-3.75Z"/>
    <path class="cls-3" d="M384.44,180.65v-9.13c0-2.96-1.73-4.94-4.84-4.94s-5.04,2.32-5.04,5.13v8.94h-3.75v-17.13h3.41l.2,2.52c1.73-1.83,3.7-2.72,6.02-2.72,4.34,0,7.7,2.96,7.7,8.2v9.18h-3.8l.1-.05h0Z"/>
    <path class="cls-3" d="M420.09,156.41v24.24h-3.51l-.2-2.72c-1.43,2.17-3.8,3.06-6.22,3.06-5.18,0-9.18-3.26-9.18-8.94s3.9-8.94,9.08-8.94c2.17,0,5.13,1.04,6.27,3.06v-9.82h3.75v.05h.01Zm-15.35,15.71c0,3.46,2.52,5.58,5.68,5.58s5.73-2.22,5.73-5.58-2.57-5.53-5.73-5.53-5.68,2.02-5.68,5.53Z"/>
    <path class="cls-3" d="M439.54,163.57h3.65v17.08h-3.55l-.2-2.76c-1.18,2.17-3.95,3.21-6.17,3.21-5.23,0-9.18-3.21-9.18-9.03s4.1-8.94,9.28-8.94c2.57,0,4.99,1.14,6.12,3.11l.1-2.72-.05,.05h0Zm-11.7,8.54c0,3.55,2.62,5.68,5.83,5.68,7.75,0,7.75-11.36,0-11.36-3.21,0-5.83,2.17-5.83,5.63v.05Z"/>
    <path class="cls-3" d="M454.06,158.63v4.94h5.23v3.11h-5.28v8.15c0,1.83,.84,2.81,2.57,2.81,.74,0,1.58-.25,2.27-.59l1.09,3.06c-1.23,.54-2.32,.74-3.6,.74-3.9,.1-6.12-2.02-6.12-6.02v-8.15h-3.46v-3.11h3.46v-4.59l3.8-.39,.05,.05h0Z"/>
    <path class="cls-3" d="M477.46,163.57h3.65v17.08h-3.55l-.2-2.76c-1.18,2.17-3.95,3.21-6.17,3.21-5.23,0-9.18-3.21-9.18-9.03s4.1-8.94,9.28-8.94c2.57,0,4.99,1.14,6.12,3.11l.1-2.72-.05,.05h0Zm-11.75,8.54c0,3.55,2.62,5.68,5.83,5.68,7.75,0,7.75-11.36,0-11.36-3.21,0-5.83,2.17-5.83,5.63v.05Z"/>
  </g>
</svg>